<svg width="40" height="40" viewBox="0 0 40 40" fill="none" xmlns="http://www.w3.org/2000/svg">
<path d="M26.3335 3.68333C25.6501 3 24.4668 3.46667 24.4668 4.41667V10.2333C24.4668 12.6667 26.5335 14.6833 29.0501 14.6833C30.6335 14.7 32.8335 14.7 34.7168 14.7C35.6668 14.7 36.1668 13.5833 35.5001 12.9167C33.1001 10.5 28.8001 6.15 26.3335 3.68333Z" fill="#6328CA"/>
<path d="M34.1665 16.9833H29.3498C25.3998 16.9833 22.1832 13.7667 22.1832 9.81667V5C22.1832 4.08333 21.4332 3.33333 20.5165 3.33333H13.4498C8.3165 3.33333 4.1665 6.66667 4.1665 12.6167V27.3833C4.1665 33.3333 8.3165 36.6667 13.4498 36.6667H26.5498C31.6832 36.6667 35.8332 33.3333 35.8332 27.3833V18.65C35.8332 17.7333 35.0832 16.9833 34.1665 16.9833ZM19.1665 29.5833H12.4998C11.8165 29.5833 11.2498 29.0167 11.2498 28.3333C11.2498 27.65 11.8165 27.0833 12.4998 27.0833H19.1665C19.8498 27.0833 20.4165 27.65 20.4165 28.3333C20.4165 29.0167 19.8498 29.5833 19.1665 29.5833ZM22.4998 22.9167H12.4998C11.8165 22.9167 11.2498 22.35 11.2498 21.6667C11.2498 20.9833 11.8165 20.4167 12.4998 20.4167H22.4998C23.1832 20.4167 23.7498 20.9833 23.7498 21.6667C23.7498 22.35 23.1832 22.9167 22.4998 22.9167Z" fill="#6328CA"/>
</svg>
